<svg xmlns="http://www.w3.org/2000/svg" viewBox="0 0 128 128" fill="none">
  <rect width="128" height="128" rx="24" fill="#1a1a1a"/>
  <!-- Sydney Opera House silhouette -->
  <g fill="#ffffff">
    <path d="M30 90 L30 70 Q30 50 45 40 L48 38 Q50 37 50 40 L50 90Z"/>
    <path d="M42 90 L42 62 Q42 48 55 38 L58 36 Q60 35 60 38 L60 90Z"/>
    <path d="M54 90 L54 55 Q54 42 66 34 L69 32 Q71 31 71 34 L71 90Z"/>
    <path d="M66 90 L66 50 Q66 40 76 34 L79 32 Q81 31 81 34 L81 90Z"/>
    <!-- base -->
    <rect x="20" y="88" width="88" height="6" rx="2"/>
    <!-- water -->
    <path d="M16 100 Q32 96 48 100 Q64 104 80 100 Q96 96 112 100" stroke="#ffffff" stroke-width="2" fill="none" opacity="0.4"/>
  </g>
</svg>
