<svg width="194" height="71" viewBox="0 0 194 71" fill="none" xmlns="http://www.w3.org/2000/svg">
<path d="M0.399994 53.4L60.3 16.8C61.3 16.2 62.5 16.5 63.1 17.5C63.7 18.5 63.4 19.7 62.4 20.3H62.3L0.699997 54C0.499997 54.1 0.300003 54 0.300003 53.9C0.200003 53.7 0.199994 53.5 0.399994 53.4Z" fill="black"/>
<path d="M0.400009 42.8L51 11.6C52 11 53.2 11.3 53.8 12.3C54.4 13.3 54.1 14.5 53.1 15.1C53.1 15.1 53 15.1 53 15.2L0.600021 43.5C0.400021 43.6 0.200012 43.5 0.200012 43.4C0.200012 43 0.200009 42.9 0.400009 42.8Z" fill="black"/>
<path d="M0.4 32.1L41.8 6.20001C42.8 5.60001 44 5.89999 44.6 6.79999C45.2 7.79999 44.9 9 44 9.6C44 9.6 43.9 9.60001 43.9 9.70001L0.800009 32.6C0.600009 32.7 0.4 32.6 0.4 32.5C0.2 32.4 0.2 32.2 0.4 32.1Z" fill="black"/>
<path d="M0.399994 21.4L32.5 0.899983C33.5 0.299983 34.7 0.599989 35.3 1.49999C35.9 2.49999 35.6 3.69998 34.7 4.29998C34.6 4.29998 34.6 4.39998 34.5 4.39998L0.699997 22C0.499997 22.1 0.300003 22 0.300003 21.9C0.200003 21.7 0.199994 21.5 0.399994 21.4Z" fill="black"/>
<path d="M62.3 31.1L9.9 59.4C9.7 59.5 9.50001 59.4 9.50001 59.3C9.40001 59.1 9.50001 59 9.60001 58.9L60.2 27.7C61.2 27.1 62.4 27.4 63 28.4C63.6 29.4 63.3 30.6 62.3 31.2C62.4 31.1 62.3 31.1 62.3 31.1Z" fill="black"/>
<path d="M62.3 41.8L19.2 64.7C19 64.8 18.8 64.7 18.8 64.6C18.7 64.4 18.8 64.3 18.9 64.2L60.3 38.3C61.3 37.7 62.5 38 63.1 38.9C63.7 39.9 63.4 41.1 62.5 41.7C62.4 41.7 62.3 41.8 62.3 41.8Z" fill="black"/>
<path d="M62.3 52.5L28.4 70C28.2 70.1 28 70 28 69.9C27.9 69.7 28 69.6 28.1 69.5L60.2 49C61.2 48.4 62.4 48.7 63 49.6C63.6 50.6 63.3 51.8 62.4 52.4C62.4 52.4 62.4 52.4 62.3 52.5Z" fill="black"/>
<path d="M110.9 40H102.6V55.6H95.6V12.8H112.7C120.3 12.8 126.5 18.9 126.5 26.6C126.5 32.1 123 37 118 39L127.7 55.6H120L110.9 40ZM102.6 33.7H112.7C116.4 33.7 119.4 30.5 119.4 26.5C119.4 22.5 116.4 19.3 112.7 19.3H102.6V33.7Z" fill="black"/>
<path d="M146.1 50.4C149.8 50.4 152.5 48.7 154 46.6L159.4 49.8C156.6 54 152 56.5 146 56.5C135.9 56.5 129.4 49.6 129.4 40.4C129.4 31.4 135.9 24.3 145.5 24.3C154.6 24.3 160.8 31.6 160.8 40.4C160.8 41.3 160.7 42.3 160.6 43.2H136.3C137.3 47.9 141.2 50.4 146.1 50.4ZM154.2 37.8C153.3 32.5 149.4 30.3 145.5 30.3C140.5 30.3 137.2 33.2 136.3 37.8H154.2Z" fill="black"/>
<path d="M193.6 36.8V55.6H187V37.5C187 32.9 184.3 30.4 180.2 30.4C175.9 30.4 172.4 33 172.4 39.2V55.6H165.8V25H172.4V28.9C174.4 25.7 177.7 24.2 181.9 24.2C188.7 24.3 193.6 28.9 193.6 36.8Z" fill="black"/>
</svg>
