<svg width="88" height="88" viewBox="0 0 88 88" fill="none" xmlns="http://www.w3.org/2000/svg">
  <path d="M47.5771 45.6817C49.2348 45.6818 50.5935 46.1482 51.6544 47.0794C52.7485 47.9775 53.2956 49.1415 53.2956 50.5718C53.2955 52.0352 52.7484 53.2332 51.6544 54.1645C50.5936 55.0954 49.2345 55.5609 47.5771 55.561H40.3154V45.6817H47.5771Z" fill="#473C75"/>
  <path d="M47.0794 32.211C48.4388 32.2111 49.5499 32.593 50.4119 33.3581C51.307 34.0898 51.7547 35.0382 51.7547 36.2024C51.7546 37.3996 51.3069 38.3808 50.4119 39.1457C49.5499 39.8775 48.4388 40.2438 47.0794 40.2438H40.3154V32.211H47.0794Z" fill="#473C75"/>
  <path fill-rule="evenodd" clip-rule="evenodd" d="M44 0C55.9979 0.000130842 65.9276 8.84858 67.6233 20.3755C79.1509 22.0706 87.9999 32.0016 88 44C88 55.9984 79.1508 65.9281 67.6233 67.6233C65.9282 79.1509 55.9984 87.9999 44 88C32.0015 87.9999 22.0705 79.1511 20.3755 67.6233C8.84842 65.9277 0 55.9981 0 44C0.000146163 32.0019 8.8484 22.071 20.3755 20.3755C22.0711 8.84849 32.002 0.000111802 44 0ZM37.2897 21.4331V26.4234H30.5675V32.2099H33.5526V55.561H30.5675V61.3486H37.2897V66.6875H41.8623V61.3486H44.4416V66.6875H49.0572V61.2937C49.6978 61.2639 50.3414 61.2192 50.8595 61.1493C53.6444 60.6836 55.8655 59.5521 57.5232 57.756C59.214 55.9266 60.0595 53.6983 60.0596 51.0707C60.0596 49.0086 59.4129 47.1792 58.12 45.5827C56.827 43.9861 55.2186 42.9377 53.2956 42.4388C54.6881 41.9066 55.8659 40.9751 56.8274 39.6446C57.7887 38.281 58.2691 36.8009 58.2692 35.2045C58.2692 33.0094 57.5897 31.1631 56.2306 29.6663C54.9044 28.1363 53.114 27.1373 50.8595 26.6717C50.3531 26.5823 49.7058 26.5251 49.0572 26.4878V21.4331H44.4416V26.4234H41.8623V21.4331H37.2897Z" fill="#473C75"/>
</svg>
